<svg xmlns="http://www.w3.org/2000/svg"  viewBox="0 0 24 24" width="24px" height="24px"><path d="M18,21H6c-1.657,0-3-1.343-3-3v-8c0-1.657,1.343-3,3-3h12c1.657,0,3,1.343,3,3v8	C21,19.657,19.657,21,18,21z" opacity=".35"/><path d="M12,12c-1.105,0-2,0.895-2,2s0.895,2,2,2s2-0.895,2-2S13.105,12,12,12z"/><path d="M15.986,4.014l0.08-0.08c0.375-0.375,0.376-0.995-0.015-1.354C14.984,1.6,13.563,1,12,1C8.686,1,6,3.686,6,7h2	c0-2.209,1.791-4,4-4c1.02,0,1.949,0.384,2.654,1.013C15.042,4.359,15.618,4.382,15.986,4.014z"/></svg>