<svg xmlns="http://www.w3.org/2000/svg"  viewBox="0 0 24 24" width="48px" height="48px"><path d="M18,21H6c-1.657,0-3-1.343-3-3V6c0-1.657,1.343-3,3-3h12c1.657,0,3,1.343,3,3v12	C21,19.657,19.657,21,18,21z" opacity=".35"/><path d="M15.156,9.86l-5.261,0.993c-0.324,0.061-0.559,0.345-0.559,0.675v4.063c0,1.132-0.533,2.41-2.47,2.41	c-1.366,0-1.862-0.696-1.862-1.501c0-0.991,0.847-1.503,1.864-1.503c0.782,0,1.135-0.789,1.135-1.433V8.722	c0-0.728,0.523-1.351,1.24-1.477l6.584-1.159C16.439,5.978,17,6.449,17,7.071v3.887c0,0,0,2.965,0,3.632	c0,1.132-0.533,2.41-2.47,2.41c-1.366,0-1.862-0.696-1.862-1.501c0-0.991,0.847-1.503,1.864-1.503c0.782,0,1.135-0.789,1.135-1.433	l0-2.279C15.667,10.014,15.422,9.81,15.156,9.86z"/></svg>